<?xml version="1.0" encoding="UTF-8"?>
<svg id="_레이어_1" data-name="레이어_1" xmlns="http://www.w3.org/2000/svg" version="1.1" viewBox="0 0 200 200">
  <!-- Generator: Adobe Illustrator 29.4.0, SVG Export Plug-In . SVG Version: 2.1.0 Build 152)  -->
  <defs>
    <style>
      .st0 {
        fill: #fff;
      }
    </style>
  </defs>
  <path class="st0" d="M100,188.58c-42.52,0-77.11-34.59-77.11-77.11,0-5.55,4.5-10.05,10.05-10.05s10.05,4.5,10.05,10.05c0,31.44,25.58,57.02,57.02,57.02s57.02-25.58,57.02-57.02-25.58-57.02-57.02-57.02h-16.38c-5.55,0-10.05-4.5-10.05-10.05s4.5-10.05,10.05-10.05h16.38c42.52,0,77.11,34.59,77.11,77.11s-34.59,77.11-77.11,77.11Z"/>
  <path class="st0" d="M93.35,81.55c-2.57,0-5.14-.98-7.1-2.94l-27.09-27.1c-3.92-3.92-3.92-10.28,0-14.21l27.09-27.1c3.92-3.92,10.28-3.92,14.21,0,3.92,3.92,3.92,10.28,0,14.21l-19.99,19.99,19.99,19.99c3.92,3.92,3.92,10.28,0,14.21-1.96,1.96-4.53,2.94-7.1,2.94Z"/>
</svg>