<?xml version="1.0" encoding="UTF-8"?>
<svg id="_레이어_1" data-name="레이어_1" xmlns="http://www.w3.org/2000/svg" version="1.1" viewBox="0 0 249.45 39.08">
  <!-- Generator: Adobe Illustrator 29.4.0, SVG Export Plug-In . SVG Version: 2.1.0 Build 152)  -->
  <defs>
    <style>
      .st0 {
        fill: #ffcb27;
      }
    </style>
  </defs>
  <path class="st0" d="M24.87,29.96h-6.43c-.15-.29-.17-1.07-.17-1.36,0-.06,1.13-.32,2.03-.46l-1.56-4.35h-7.71l-1.54,4.38c.9.12,1.97.35,1.97.46,0,.23-.06,1.04-.2,1.33h-5.8c-.15-.26-.15-1.25.03-1.45.15-.12.75-.29,1.1-.38.2-.06.32-.14.43-.32.29-.67,1.01-2.43,1.42-3.48l5.24-14.02c.52-.09,1.28-.38,1.71-.58.23-.06.64-.06.84,0l5.53,14.58c.41,1.04,1.19,2.96,1.39,3.39.15.26.32.38.58.43.29.09.93.23,1.13.38.15.2.12,1.16,0,1.45ZM18.09,22.08l-1.54-4.2-1.62-4.75h-.29l-1.56,4.75-1.48,4.2h6.49Z"/>
  <path class="st0" d="M40.9,28.66c0,.2-.09,1.01-.2,1.3h-5.8c-.09-.32-.12-1.25,0-1.36.09-.09.93-.35,1.33-.43.17-.06.29-.12.29-.32.03-.81.06-2.09.06-2.81v-4.75c0-1.54-.38-3.19-2.9-3.19-1.33,0-2.96.46-4.38,1.83v9.33c.78.12,1.71.29,1.71.41,0,.2-.09,1.01-.2,1.3h-5.77c-.09-.32-.12-1.25,0-1.36.09-.09.93-.35,1.33-.43.17-.06.29-.12.29-.32.03-.81.06-2.09.06-2.81v-6.84c0-.55,0-.81-.55-.93l-1.25-.26c-.09-.29-.09-.93,0-1.25.75-.29,2.93-.7,3.68-.78l.55.2v2.23c1.22-1.62,3.19-2.52,5.39-2.52,1.45,0,2.84.43,3.74,1.51.84,1.01.87,2.2.87,3.82v8.03c.78.12,1.74.29,1.74.41Z"/>
  <path class="st0" d="M41.66,28.6c.09-.09,1.01-.35,1.45-.46.17-.03.29-.12.29-.32.03-.81.06-2.06.06-2.78v-6.84c0-.55,0-.81-.55-.93l-1.36-.26c-.09-.29-.09-.93,0-1.25.75-.29,3.19-.7,3.94-.78l.55.2v13.07c.81.09,1.83.29,1.83.41,0,.2-.09,1.01-.2,1.3h-6c-.09-.32-.12-1.25,0-1.36ZM42.61,10.52c0-1.01.81-1.85,1.94-1.85s1.91.84,1.91,1.85-.78,1.62-1.91,2.03c-1.13-.41-1.94-1.01-1.94-2.03Z"/>
  <path class="st0" d="M73.1,28.66c0,.2-.09,1.01-.2,1.3h-5.82c-.09-.32-.12-1.25,0-1.36.09-.09.96-.35,1.36-.43.17-.06.29-.12.29-.32.03-.81.06-2.09.06-2.81v-4.75c0-1.65-.41-3.22-2.61-3.22-1.27,0-2.75.41-4.06,1.59.03.23.03.46.03.72v8.87c.78.12,1.74.29,1.74.41,0,.2-.09,1.01-.2,1.3h-5.8c-.09-.32-.12-1.25,0-1.36.09-.09.93-.35,1.33-.43.17-.06.29-.12.29-.32.03-.81.06-2.09.06-2.81v-4.75c0-1.65-.38-3.22-2.61-3.22-1.27,0-2.81.43-4.11,1.65v9.53c.78.12,1.71.29,1.71.41,0,.2-.09,1.01-.2,1.3h-5.77c-.09-.32-.12-1.25,0-1.36.09-.09.93-.35,1.33-.43.17-.06.29-.12.29-.32.03-.81.06-2.09.06-2.81v-6.84c0-.55,0-.81-.55-.93l-1.25-.26c-.09-.29-.09-.93,0-1.25.75-.29,2.93-.7,3.68-.78l.55.2v2.06c1.1-1.48,2.87-2.35,4.93-2.35,1.48,0,2.84.43,3.71,1.51.23.26.41.55.52.84h.06c1.1-1.48,2.84-2.35,4.9-2.35,1.51,0,2.84.43,3.74,1.51.78.96.78,2.17.78,3.8v8.06c.78.12,1.77.29,1.77.41Z"/>
  <path class="st0" d="M87.33,29.65c-.58.46-1.36.64-2.46.64-1.36,0-1.88-.61-1.88-1.54v-.49h-.09c-.2.23-.38.43-.61.67-.84.81-1.94,1.59-4,1.59-2.41,0-4.23-1.25-4.23-3.68,0-1.88.96-3.33,2.98-4.38,1.33-.7,3.54-1.25,5.74-1.48v-1.19c0-1.25-.38-3.07-2.93-3.07-1.13,0-2.09.38-2.35.67-.15.38-.15,1.42-.15,1.94-.55.38-1.65.52-2.35.52-.52,0-.7-.23-.7-.7,0-.7.35-1.56,1.1-2.23,1.01-.87,2.78-2.03,5.13-2.03,1.94,0,3.25.58,4,1.62.78,1.13.78,2.58.78,3.51v7.27c0,.61.12,1.04.87,1.04.29,0,.7-.03.9-.06.2.26.29,1.1.23,1.36ZM82.78,26.89v-4.41c-1.62.12-3.39.64-4.4,1.25-1.07.61-1.71,1.48-1.71,2.64,0,1.3.75,2.06,2.35,2.06,1.22,0,2.4-.52,3.04-.99.26-.17.49-.38.72-.55Z"/>
  <path class="st0" d="M86.81,15.82c.38-.23,1.8-.49,2.41-.55.38-1.07.87-2.26,1.36-3.19h1.39v3.36h4.43v1.74c0,.12-.09.2-.2.2h-4.23v9.65c0,1.13.61,1.39,1.65,1.39.87,0,1.97-.2,2.69-.46.12.26.26,1.13.26,1.45-1.25.84-2.93,1.1-4.14,1.1s-3.04-.17-3.04-2.67v-10.46h-2.38c-.14,0-.35-1.33-.2-1.56Z"/>
  <path class="st0" d="M97.16,22.66c0-4.87,2.78-7.77,7.21-7.77s7.13,2.9,7.13,7.77-2.75,7.85-7.13,7.85-7.21-2.93-7.21-7.85ZM108.81,22.66c0-3.68-1.65-5.82-4.43-5.82s-4.52,2.12-4.52,5.82,1.68,5.88,4.49,5.88,4.46-2.14,4.46-5.88Z"/>
  <path class="st0" d="M123.18,16.49c0,1.04-.49,1.65-1.16,1.88h-.26c-.41-.43-.96-.93-1.39-1.22-1.22.32-2.52,1.01-3.62,2.2v8.9c.73.09,2.15.35,2.15.46,0,.2-.09.96-.2,1.25h-6.2c-.09-.32-.12-1.25,0-1.36.09-.09.93-.35,1.33-.43.17-.06.29-.12.29-.32.03-.81.06-2.09.06-2.81v-6.84c0-.55,0-.81-.55-.93l-1.25-.26c-.09-.29-.09-.93,0-1.25.75-.29,2.87-.7,3.62-.78l.55.2v2.64h.06c.81-1.19,2.75-2.93,4.69-2.93,1.25,0,1.88.55,1.88,1.59Z"/>
  <path class="st0" d="M148.37,28.63c0,.26-.03,1.01-.17,1.33h-6.32c-.12-.32-.14-1.19,0-1.36.09-.12.93-.35,1.28-.43.32-.09.49-.14.52-.35.06-.78.09-2.29.09-2.78v-4.23h-10.05v7.3c1.01.17,1.97.43,1.97.52,0,.26-.03,1.01-.17,1.33h-6.32c-.12-.32-.14-1.19,0-1.36.09-.12.96-.35,1.3-.43.32-.09.49-.14.52-.35.06-.78.06-2.29.06-2.78v-12.92c-1.01-.17-1.97-.43-1.97-.52,0-.26.03-1.01.17-1.33h6.32c.12.32.14,1.16,0,1.33-.09.12-.93.35-1.3.43-.32.09-.49.15-.52.35-.06.78-.06,2.29-.06,2.78v3.88h10.05v-6.93c-1.04-.17-2-.43-2-.52,0-.26.03-1.01.17-1.33h6.32c.12.32.15,1.16,0,1.33-.09.12-.9.35-1.27.43-.32.09-.49.15-.52.35-.06.78-.09,2.29-.09,2.78v12.95c1.04.17,2,.43,2,.52Z"/>
  <path class="st0" d="M162.71,29.65c-.58.46-1.36.64-2.46.64-1.36,0-1.88-.61-1.88-1.54v-.49h-.09c-.2.23-.38.43-.61.67-.84.81-1.94,1.59-4,1.59-2.41,0-4.23-1.25-4.23-3.68,0-1.88.96-3.33,2.98-4.38,1.33-.7,3.54-1.25,5.74-1.48v-1.19c0-1.25-.38-3.07-2.93-3.07-1.13,0-2.09.38-2.35.67-.14.38-.14,1.42-.14,1.94-.55.38-1.65.52-2.35.52-.52,0-.7-.23-.7-.7,0-.7.35-1.56,1.1-2.23,1.01-.87,2.78-2.03,5.13-2.03,1.94,0,3.25.58,4,1.62.78,1.13.78,2.58.78,3.51v7.27c0,.61.12,1.04.87,1.04.29,0,.7-.03.9-.06.2.26.29,1.1.23,1.36ZM158.16,26.89v-4.41c-1.62.12-3.39.64-4.4,1.25-1.07.61-1.71,1.48-1.71,2.64,0,1.3.75,2.06,2.35,2.06,1.22,0,2.41-.52,3.04-.99.26-.17.49-.38.72-.55Z"/>
  <path class="st0" d="M179.06,28.66c0,.2-.09,1.01-.2,1.3h-5.79c-.09-.32-.12-1.25,0-1.36.09-.09.93-.35,1.33-.43.17-.06.29-.12.29-.32.03-.81.06-2.09.06-2.81v-4.75c0-1.54-.38-3.19-2.9-3.19-1.33,0-2.96.46-4.38,1.83v9.33c.78.12,1.71.29,1.71.41,0,.2-.09,1.01-.2,1.3h-5.77c-.09-.32-.12-1.25,0-1.36.09-.09.93-.35,1.33-.43.17-.06.29-.12.29-.32.03-.81.06-2.09.06-2.81v-6.84c0-.55,0-.81-.55-.93l-1.25-.26c-.09-.29-.09-.93,0-1.25.75-.29,2.93-.7,3.68-.78l.55.2v2.23c1.22-1.62,3.19-2.52,5.39-2.52,1.45,0,2.84.43,3.74,1.51.84,1.01.87,2.2.87,3.82v8.03c.78.12,1.74.29,1.74.41Z"/>
  <path class="st0" d="M180.63,29.65V11.01c0-.55,0-.81-.55-.93l-1.3-.26c-.09-.29-.09-.93,0-1.25.75-.29,3.13-.7,3.88-.78l.55.2v5.65l-.12,3.51h.17c1.07-1.48,2.81-2.26,4.84-2.26,3.74,0,5.88,2.58,5.88,6.95,0,5.51-3.42,8.67-8.4,8.67-1.74,0-3.59-.35-4.96-.87ZM189.41,27.47c.81-.72,1.88-2.09,1.88-5.45s-1.16-4.98-3.77-4.98c-1.77,0-3.01.58-4.32,1.97v8.84c1.13.49,2.29.72,3.25.72,1.07,0,2.06-.32,2.96-1.1Z"/>
  <path class="st0" d="M209.08,16.9c-.32.14-1.01.38-1.36.43-.29.58-.99,2.29-1.27,3.04l-3.91,9.53c-.75,1.85-1.94,4.06-2.46,4.93-1.04,1.74-2.23,2.64-4.29,2.64-1.56,0-2.78-.61-2.78-1.83,0-.7.32-1.45.84-1.77h.26c.7.64,1.71,1.1,2.55,1.1.78,0,1.36-.35,1.94-1.19.49-.72,1.42-2.4,1.88-3.68l-4-9.85c-.32-.75-.87-2-1.16-2.52-.2-.41-.38-.49-.52-.55l-1.07-.29c-.17-.26-.2-1.19-.06-1.45h5.97c.14.29.17,1.04.17,1.33,0,.06-.9.23-1.68.35.26.81.58,1.71.96,2.75l1.36,3.54c.43,1.16.98,2.78,1.39,3.91l1.42-3.91,1.22-3.39c.38-.99.67-2,.9-2.87-.7-.09-1.65-.29-1.65-.38,0-.23.09-1.07.2-1.33h5.19c.12.23.12,1.22-.03,1.45Z"/>
  <path class="st0" d="M221.6,23.04h-10.2c0,2.67,1.28,5.27,5.04,5.27,1.51,0,3.25-.29,4.46-.98l.55,1.16c-1.36,1.36-3.54,2.03-5.71,2.03-4.52,0-7.04-3.01-7.04-7.39,0-5.27,3.07-8.23,7.21-8.23,1.85,0,3.65.72,4.69,2.14.67.93,1.13,2.17,1.13,3.74,0,.64-.03,1.74-.14,2.26ZM211.43,21.18h7.68v-.49c0-2.43-1.36-3.83-3.48-3.83-2.84,0-4.03,2.41-4.2,4.32Z"/>
  <path class="st0" d="M222.65,22.66c0-4.87,2.78-7.77,7.21-7.77s7.13,2.9,7.13,7.77-2.75,7.85-7.13,7.85-7.21-2.93-7.21-7.85ZM234.3,22.66c0-3.68-1.65-5.82-4.43-5.82s-4.52,2.12-4.52,5.82,1.68,5.88,4.49,5.88,4.46-2.14,4.46-5.88Z"/>
  <path class="st0" d="M237.9,28.6c.09-.09,1.07-.38,1.45-.46.17-.03.29-.12.29-.32.03-.81.06-2.06.06-2.78v-14.03c0-.55,0-.81-.55-.93l-1.39-.26c-.09-.29-.09-.93,0-1.25.75-.29,3.22-.7,3.97-.78l.55.2v20.25c.78.09,1.83.29,1.83.41,0,.2-.09,1.01-.2,1.3h-6c-.09-.32-.12-1.25,0-1.36Z"/>
</svg>